<svg xmlns="http://www.w3.org/2000/svg" width="293" height="293" fill="none"><path stroke="#263238" stroke-linecap="round" stroke-linejoin="round" d="m250.187 189.694-.457 4.102 7.975-9.323c.954.1 1.913.15 2.872.152M240.196 161.402a11.953 11.953 0 0 0-1.916 5.274c-.756 6.815 4.588 13.261 12.663 16.244l-.41 3.662M243.296 158.009c-.52.421-1.013.873-1.477 1.354M273.205 158.009a26.33 26.33 0 0 0-12.242-4.477 26.012 26.012 0 0 0-13.63 2.004M266.126 184.074c7.618-1.576 13.39-6.446 14.064-12.763.492-4.418-1.576-8.678-5.274-11.948"/><path stroke="#263238" stroke-linecap="round" stroke-linejoin="round" d="M247.339 162.539a4.983 4.983 0 0 0 3.739-.797l2.848 2.209c-.2.064-.182-.357.029-.369.211-.012.369.182.515.334.669.709 1.794.732 2.749.527.955-.205 1.887-.586 2.86-.551a7.086 7.086 0 0 1 1.693.393c3.915 1.213 7.987 1.823 12.042 2.42M243.976 166.705c.586-.035 3.85 0 4.318-.392l.797 1.388.879-.849c.153.586.305 1.172.452 1.723.662.158.586-1.12 1.172-1.501a.795.795 0 0 1 1.037.311c.192.36.285.764.269 1.172l4.009.328.779.065a2.284 2.284 0 0 1 1.172-.909c-.147.926 1.02 1.454 1.946 1.641 4.559.93 9.141 1.733 13.747 2.409M245.757 173.069c.369.258.82-.222 1.271-.281.452-.059.821.281 1.219.486.399.205 1.055.118 1.079-.328.093.586.82.797 1.412.879l15.388 2.163M39.848 153.051l6.165 8.298-1.237-10.858a28.624 28.624 0 0 0 4.214-2.514c6.317-4.571 8.86-11.925 6.545-17.85-1.623-4.137-5.426-6.95-10.231-8.116M15.5 139.96a11.928 11.928 0 0 0 .75 5.538c2.496 6.387 10.22 9.61 18.752 8.497M16.666 135.512a17.008 17.008 0 0 0-.674 1.887M43.153 121.613a26.281 26.281 0 0 0-12.927 1.711 26.002 26.002 0 0 0-11.134 8.11"/><path stroke="#263238" stroke-linecap="round" stroke-linejoin="round" d="M22.35 137.64a4.997 4.997 0 0 0 2.93-2.438l3.516.633c-.152.146-.328-.235-.146-.346.181-.111.41 0 .586.059.925.316 1.927-.182 2.678-.809.75-.627 1.394-1.407 2.28-1.817a7.196 7.196 0 0 1 1.681-.445c4.032-.738 7.917-2.098 11.79-3.452M21.307 142.896c.522-.311 3.41-1.793 3.645-2.344l1.354.861c.129-.386.258-.779.38-1.172l1.202 1.319c.662-.164 0-1.26.316-1.858a.791.791 0 0 1 1.061-.205c.335.225.604.534.78.897l3.697-1.571.727-.304c.041-.504.247-.979.586-1.354.304.897 1.582.814 2.484.551a240.003 240.003 0 0 0 13.297-4.255M25.843 147.701c.451.059.627-.586.996-.844.37-.257.861-.123 1.307-.134.445-.012.99-.381.803-.786.357.475 1.101.323 1.658.123l14.65-5.244"/><path fill="#fff" d="M218.537 52.517H72.424a5.151 5.151 0 0 0-5.151 5.151v131.628a5.152 5.152 0 0 0 5.15 5.151h146.114a5.151 5.151 0 0 0 5.151-5.151V57.668a5.15 5.15 0 0 0-5.151-5.15Z"/><path fill="#000" d="M223.688 130.262v59.186a4.997 4.997 0 0 1-4.993 4.998H72.272a4.996 4.996 0 0 1-5-4.998v-11.72h.311v7.899a5.715 5.715 0 0 0 5.72 5.714h141.454a5.728 5.728 0 0 0 4.044-1.672 5.706 5.706 0 0 0 1.676-4.042V139.04a3.975 3.975 0 0 0-1.166-2.813 3.975 3.975 0 0 0-2.813-1.166H67.273v-4.799h156.415Z" opacity=".2"/><path stroke="#263238" stroke-linecap="round" stroke-linejoin="round" d="M218.537 52.517H72.424a5.151 5.151 0 0 0-5.151 5.151v131.628a5.152 5.152 0 0 0 5.15 5.151h146.114a5.151 5.151 0 0 0 5.151-5.151V57.668a5.15 5.15 0 0 0-5.151-5.15Z"/><path fill="#263238" d="M210.069 147.115v-6.78a2.49 2.49 0 0 0-.732-1.775 2.496 2.496 0 0 0-1.776-.733H83.4a2.506 2.506 0 0 0-2.508 2.508v6.78a2.51 2.51 0 0 1-2.508 2.508 2.512 2.512 0 0 0-2.514 2.514v13.379a11.633 11.633 0 0 0 11.632 11.632 1.871 1.871 0 0 1 1.87 1.869v4.008a5.578 5.578 0 0 0 5.578 5.579H196.01a5.58 5.58 0 0 0 5.579-5.579v-4.008a1.869 1.869 0 0 1 1.869-1.869 11.625 11.625 0 0 0 8.226-3.407 11.642 11.642 0 0 0 3.406-8.225v-13.379a2.514 2.514 0 0 0-2.508-2.514 2.514 2.514 0 0 1-2.514-2.508Z"/><path fill="#fff" stroke="#263238" stroke-linecap="round" stroke-linejoin="round" d="M90.402 141.666H86.06a2.003 2.003 0 0 0-2.004 2.004v1.113c0 2.309 1.869 5.239 4.178 5.239s4.178-2.93 4.178-5.239v-1.113a2.012 2.012 0 0 0-2.01-2.004ZM100.792 141.666H96.45a2.008 2.008 0 0 0-2.01 2.004v1.113c0 2.309 1.87 5.239 4.178 5.239 2.309 0 4.178-2.93 4.178-5.239v-1.113a2 2 0 0 0-2.004-2.004ZM111.223 141.666h-4.342a2.005 2.005 0 0 0-2.005 2.004v1.113c0 2.309 1.87 5.239 4.173 5.239s4.178-2.93 4.178-5.239v-1.113a2 2 0 0 0-2.004-2.004ZM121.63 141.666h-4.342a2.003 2.003 0 0 0-2.004 2.004v1.113c0 2.309 1.869 5.239 4.178 5.239s4.172-2.93 4.172-5.239v-1.113a2.012 2.012 0 0 0-2.004-2.004ZM132.038 141.666h-4.342a2.005 2.005 0 0 0-2.005 2.004v1.113c0 2.309 1.87 5.239 4.179 5.239 2.308 0 4.178-2.93 4.178-5.239v-1.113a2.013 2.013 0 0 0-2.01-2.004ZM142.451 141.666h-4.342a2.01 2.01 0 0 0-2.01 2.004v1.113c0 2.309 1.869 5.239 4.178 5.239s4.178-2.93 4.178-5.239v-1.113a2 2 0 0 0-2.004-2.004ZM152.858 141.666h-4.342a2.003 2.003 0 0 0-2.004 2.004v1.113c0 2.309 1.869 5.239 4.172 5.239s4.178-2.93 4.178-5.239v-1.113a2 2 0 0 0-2.004-2.004ZM163.265 141.666h-4.342a2.004 2.004 0 0 0-2.004 2.004v1.113c0 2.309 1.869 5.239 4.178 5.239s4.172-2.93 4.172-5.239v-1.113a2 2 0 0 0-2.004-2.004ZM173.673 141.665h-4.319a2 2 0 0 0-1.851 1.238 1.996 1.996 0 0 0-.153.767v1.113c0 2.309 1.869 5.239 4.178 5.239s4.178-2.93 4.178-5.239v-1.113a2.006 2.006 0 0 0-2.033-2.005ZM184.086 141.666h-4.342a2.006 2.006 0 0 0-2.01 2.004v1.113c0 2.309 1.869 5.239 4.178 5.239s4.178-2.93 4.178-5.239v-1.113a2 2 0 0 0-2.004-2.004ZM194.493 141.666h-4.342a2.004 2.004 0 0 0-2.004 2.004v1.113c0 2.309 1.869 5.239 4.172 5.239s4.178-2.93 4.178-5.239v-1.113a2 2 0 0 0-2.004-2.004ZM204.901 141.665h-4.342a2.007 2.007 0 0 0-2.004 2.005v1.113c0 2.303 1.857 5.233 4.201 5.233 2.344 0 4.173-2.93 4.173-5.239v-1.113a2.001 2.001 0 0 0-1.255-1.853 2.008 2.008 0 0 0-.773-.146ZM90.402 163.723H86.06a2.003 2.003 0 0 0-2.004 2.004v1.113c0 2.309 1.869 5.239 4.178 5.239s4.178-2.93 4.178-5.239v-1.113a2.012 2.012 0 0 0-2.01-2.004ZM100.792 163.723H96.45a2.008 2.008 0 0 0-2.01 2.004v1.113c0 2.309 1.87 5.239 4.178 5.239 2.309 0 4.178-2.93 4.178-5.239v-1.113a2 2 0 0 0-2.004-2.004ZM111.223 163.723h-4.342a2.005 2.005 0 0 0-2.005 2.004v1.113c0 2.309 1.87 5.239 4.173 5.239s4.178-2.93 4.178-5.239v-1.113a2 2 0 0 0-2.004-2.004ZM121.63 163.723h-4.342a2.003 2.003 0 0 0-2.004 2.004v1.113c0 2.309 1.869 5.239 4.178 5.239s4.172-2.93 4.172-5.239v-1.113a2.012 2.012 0 0 0-2.004-2.004ZM132.038 163.723h-4.342a2.005 2.005 0 0 0-2.005 2.004v1.113c0 2.309 1.87 5.239 4.179 5.239 2.308 0 4.178-2.93 4.178-5.239v-1.113a2.013 2.013 0 0 0-2.01-2.004ZM142.451 163.723h-4.342a2.01 2.01 0 0 0-2.01 2.004v1.113c0 2.309 1.869 5.239 4.178 5.239s4.178-2.93 4.178-5.239v-1.113a2 2 0 0 0-2.004-2.004ZM152.858 163.723h-4.342a2.003 2.003 0 0 0-2.004 2.004v1.113c0 2.309 1.869 5.239 4.172 5.239s4.178-2.93 4.178-5.239v-1.113a2 2 0 0 0-2.004-2.004ZM163.265 163.723h-4.342a2.004 2.004 0 0 0-2.004 2.004v1.113c0 2.309 1.869 5.239 4.178 5.239s4.172-2.93 4.172-5.239v-1.113a2 2 0 0 0-2.004-2.004ZM173.673 163.723h-4.319a1.999 1.999 0 0 0-1.851 1.237 1.996 1.996 0 0 0-.153.767v1.113c0 2.309 1.869 5.239 4.178 5.239s4.178-2.93 4.178-5.239v-1.113a2.01 2.01 0 0 0-2.033-2.004ZM184.086 163.723h-4.342a2.006 2.006 0 0 0-2.01 2.004v1.113c0 2.309 1.869 5.239 4.178 5.239s4.178-2.93 4.178-5.239v-1.113a2 2 0 0 0-2.004-2.004ZM194.493 163.723h-4.342a2.004 2.004 0 0 0-2.004 2.004v1.113c0 2.309 1.869 5.239 4.172 5.239s4.178-2.93 4.178-5.239v-1.113a2 2 0 0 0-2.004-2.004ZM204.901 163.723h-4.342a2.003 2.003 0 0 0-2.004 2.004v1.113c0 2.309 1.869 5.239 4.178 5.239s4.172-2.93 4.172-5.239v-1.113a2 2 0 0 0-2.004-2.004ZM85.198 153.051h-4.33a2.008 2.008 0 0 0-2.004 2.005v1.113c0 2.303 1.87 5.239 4.178 5.239 2.309 0 4.172-2.93 4.172-5.239v-1.113a2.004 2.004 0 0 0-2.016-2.005ZM95.606 153.051h-4.342a2.008 2.008 0 0 0-2.004 2.005v1.113c0 2.303 1.87 5.239 4.178 5.239 2.309 0 4.178-2.93 4.178-5.239v-1.113a2.01 2.01 0 0 0-2.01-2.005ZM106.019 153.051h-4.342a2.009 2.009 0 0 0-2.01 2.005v1.113c0 2.303 1.875 5.239 4.178 5.239s4.178-2.93 4.178-5.239v-1.113a2.005 2.005 0 0 0-2.004-2.005ZM116.426 153.051h-4.342a2.005 2.005 0 0 0-2.004 2.005v1.113c0 2.303 1.869 5.239 4.172 5.239s4.179-2.93 4.179-5.239v-1.113a2.002 2.002 0 0 0-2.005-2.005ZM126.834 153.051h-4.36a2.007 2.007 0 0 0-2.004 2.005v1.113c0 2.303 1.869 5.239 4.178 5.239s4.172-2.93 4.172-5.239v-1.113a2.003 2.003 0 0 0-1.986-2.005ZM137.241 153.051h-4.342a2.005 2.005 0 0 0-2.004 2.005v1.113c0 2.303 1.869 5.239 4.178 5.239s4.178-2.93 4.178-5.239v-1.113a2.01 2.01 0 0 0-2.01-2.005ZM147.672 153.051h-4.342a2.007 2.007 0 0 0-2.01 2.005v1.113c0 2.303 1.875 5.239 4.178 5.239s4.178-2.93 4.178-5.239v-1.113a2.005 2.005 0 0 0-2.004-2.005ZM158.062 153.051h-4.343a2.005 2.005 0 0 0-2.004 2.005v1.113c0 2.303 1.87 5.239 4.173 5.239s4.178-2.93 4.178-5.239v-1.113a2.005 2.005 0 0 0-2.004-2.005ZM168.469 153.051h-4.342a2.005 2.005 0 0 0-2.004 2.005v1.113c0 2.303 1.869 5.239 4.178 5.239s4.172-2.93 4.172-5.239v-1.113a2.005 2.005 0 0 0-2.004-2.005ZM178.877 153.051h-4.343a2.005 2.005 0 0 0-2.004 2.005v1.113c0 2.303 1.87 5.239 4.178 5.239 2.309 0 4.179-2.93 4.179-5.239v-1.113a2.011 2.011 0 0 0-2.01-2.005ZM189.278 153.051h-4.342a2.007 2.007 0 0 0-2.01 2.005v1.113c0 2.303 1.875 5.239 4.178 5.239s4.178-2.93 4.178-5.239v-1.113a2.005 2.005 0 0 0-2.004-2.005ZM199.697 153.051h-4.342a2.008 2.008 0 0 0-1.975 2.005v1.113c0 2.303 1.869 5.239 4.172 5.239s4.178-2.93 4.178-5.239v-1.113a1.996 1.996 0 0 0-.597-1.428 2.014 2.014 0 0 0-1.436-.577ZM210.105 153.051h-4.343a2.005 2.005 0 0 0-2.004 2.005v1.113c0 2.303 1.87 5.239 4.178 5.239 2.309 0 4.173-2.93 4.173-5.239v-1.113a2.005 2.005 0 0 0-2.004-2.005ZM185.235 174.833h-79.509a1.88 1.88 0 0 0-1.881 1.881v5.708a1.88 1.88 0 0 0 1.881 1.881h79.509a1.88 1.88 0 0 0 1.881-1.881v-5.708a1.88 1.88 0 0 0-1.881-1.881ZM195.883 175.39h-4.343a2.004 2.004 0 0 0-2.004 2.004v1.113c0 2.309 1.869 5.239 4.178 5.239s4.173-2.93 4.173-5.239v-1.113a2.007 2.007 0 0 0-2.004-2.004ZM99.42 175.39h-4.342a2.004 2.004 0 0 0-2.004 2.004v1.113c0 2.309 1.87 5.239 4.178 5.239 2.31 0 4.179-2.93 4.179-5.239v-1.113a2.013 2.013 0 0 0-2.01-2.004Z"/><path fill="#000" d="M90.643 144.847c.21.001.42.021.627.059v-1.236a.872.872 0 0 0-.873-.868h-4.343a.877.877 0 0 0-.867.868v1.113c0 1.6 1.172 3.616 2.555 4.02-.428-1.776.533-3.956 2.9-3.956ZM101.284 144.549c.133-.01.266-.01.399 0v-.903a.876.876 0 0 0-.868-.867h-4.342a.875.875 0 0 0-.873.867v1.113c0 1.758 1.389 3.956 2.93 4.102-.709-1.816.223-4.312 2.754-4.312ZM112.002 144.396h.088v-.732a.868.868 0 0 0-.867-.868h-4.343a.876.876 0 0 0-.873.868v1.113c0 1.787 1.477 4.102 3.042 4.102.076.006.152.006.228 0-.785-1.852.123-4.483 2.725-4.483ZM121.748 144.097c.243-.007.487.013.726.059v-.51a.864.864 0 0 0-.867-.867h-4.342a.868.868 0 0 0-.868.867v1.113c0 1.676 1.29 3.809 2.743 4.102-.996-1.84-.135-4.764 2.608-4.764ZM132.688 144.097h.223v-.439a.874.874 0 0 0-.873-.867h-4.343a.87.87 0 0 0-.867.867v1.113c0 1.788 1.477 4.102 3.041 4.102.08.006.161.006.241 0-1.026-1.846-.164-4.776 2.578-4.776ZM143.183 144.156h.135v-.51a.872.872 0 0 0-.867-.867h-4.343a.875.875 0 0 0-.873.867v1.113c0 1.788 1.477 4.102 3.042 4.102.095.009.191.009.287 0-.961-1.845-.088-4.705 2.619-4.705ZM153.227 144.097c.167.003.333.014.498.035v-.462a.868.868 0 0 0-.867-.868h-4.342a.872.872 0 0 0-.614.254.872.872 0 0 0-.254.614v1.113c0 1.758 1.454 4.067 3.007 4.102-1.038-1.84-.182-4.788 2.572-4.788ZM164.133 144.25v-.586a.868.868 0 0 0-.867-.868h-4.343a.87.87 0 0 0-.867.868v1.113c0 1.787 1.471 4.102 3.042 4.102.157-.002.313-.028.462-.076-.843-1.805.018-4.471 2.573-4.553ZM173.691 144.021c.288-.001.576.037.855.111v-.462a.87.87 0 0 0-.873-.868h-4.319a.876.876 0 0 0-.867.868v1.113c0 1.652 1.254 3.739 2.678 4.055-1.096-1.834-.246-4.817 2.526-4.817ZM184.332 144.021c.209.001.416.02.621.059v-.41a.871.871 0 0 0-.867-.868h-4.342a.873.873 0 0 0-.873.868v1.113c0 1.758 1.406 3.991 2.93 4.102-1.102-1.84-.258-4.864 2.531-4.864ZM194.903 144.32c.153.002.306.014.458.035v-.685a.872.872 0 0 0-.254-.614.872.872 0 0 0-.614-.254h-4.342a.878.878 0 0 0-.613.254.859.859 0 0 0-.254.614v1.113c0 1.758 1.406 3.985 2.93 4.102-.85-1.852.047-4.565 2.689-4.565ZM205.768 144.185v-.515a.868.868 0 0 0-.867-.868h-4.342a.872.872 0 0 0-.614.254.872.872 0 0 0-.254.614v1.113c0 1.787 1.471 4.102 3.042 4.102.226-.003.449-.051.656-.141-.832-1.769-.047-4.36 2.379-4.559ZM90.942 165.838c.11-.006.222-.006.334 0v-.123a.874.874 0 0 0-.874-.867H86.06a.871.871 0 0 0-.867.867v1.113c0 1.788 1.477 4.102 3.041 4.102.108-.002.216-.014.323-.035-1.313-1.781-.516-5.057 2.385-5.057ZM101.138 165.838c.182.001.365.016.545.047v-.152a.876.876 0 0 0-.868-.868h-4.342a.871.871 0 0 0-.873.868v1.113c0 1.787 1.477 4.102 3.041 4.102h.13c-1.343-1.805-.552-5.11 2.367-5.11ZM111.481 165.985c.196 0 .392.018.586.052v-.31a.878.878 0 0 0-.254-.614.878.878 0 0 0-.614-.254h-4.342a.873.873 0 0 0-.873.868v1.113c0 1.758 1.453 4.061 3.006 4.102-1.166-1.822-.352-4.957 2.491-4.957ZM122.046 166.061c.151 0 .302.01.452.029v-.363a.878.878 0 0 0-.254-.614.882.882 0 0 0-.614-.254h-4.342a.881.881 0 0 0-.613.254.86.86 0 0 0-.254.614v1.113c0 1.787 1.471 4.102 3.041 4.102h.071c-1.126-1.834-.288-4.881 2.513-4.881ZM132.243 165.838c.224 0 .448.022.668.064v-.169a.873.873 0 0 0-.873-.868h-4.343a.876.876 0 0 0-.867.868v1.113c0 1.787 1.477 4.102 3.041 4.102-1.336-1.793-.55-5.11 2.374-5.11ZM142.808 165.908c.171.002.341.015.51.041v-.222a.872.872 0 0 0-.867-.868h-4.343a.876.876 0 0 0-.873.868v1.113c0 1.787 1.477 4.102 3.042 4.102h.111c-1.266-1.817-.457-5.034 2.42-5.034ZM153.602 166.131h.123v-.41a.864.864 0 0 0-.867-.867h-4.342a.868.868 0 0 0-.868.867v1.113c0 1.787 1.471 4.102 3.036 4.102.114-.002.228-.015.34-.041-1.008-1.828-.17-4.764 2.578-4.764ZM164.08 165.908h.035v-.181a.859.859 0 0 0-.254-.614.878.878 0 0 0-.613-.254h-4.325a.876.876 0 0 0-.613.254.878.878 0 0 0-.254.614v1.113c0 1.787 1.471 4.102 3.042 4.102.179-.003.357-.034.527-.094-1.19-1.816-.363-4.94 2.455-4.94ZM174.212 165.686h.328a.87.87 0 0 0-.867-.838h-4.319a.87.87 0 0 0-.867.867v1.113c0 1.788 1.477 4.102 3.041 4.102.143-.004.285-.026.422-.064-1.471-1.746-.709-5.18 2.262-5.18ZM184.936 165.838v-.105a.876.876 0 0 0-.868-.868h-4.342a.87.87 0 0 0-.873.868v1.113c0 1.787 1.477 4.102 3.041 4.102.2-.003.398-.039.586-.106-1.224-1.816-.416-5.004 2.456-5.004ZM195.138 165.838h.235v-.117a.878.878 0 0 0-.254-.613.859.859 0 0 0-.614-.254h-4.342a.866.866 0 0 0-.867.867v1.113c0 1.787 1.471 4.102 3.035 4.102.139-.002.277-.021.411-.058-1.307-1.794-.504-5.04 2.396-5.04ZM205.393 166.283h.375v-.586a.866.866 0 0 0-.867-.867h-4.342a.868.868 0 0 0-.868.867v1.114c0 1.787 1.471 4.102 3.042 4.102-.909-1.817-.03-4.63 2.66-4.63ZM85.996 155.343h.076v-.287a.872.872 0 0 0-.873-.868h-4.33a.87.87 0 0 0-.868.868v1.113c0 1.787 1.47 4.102 3.041 4.102.151-.004.301-.027.446-.07-1.125-1.829-.276-4.858 2.508-4.858ZM96.186 155.343h.293v-.299a.875.875 0 0 0-.873-.867h-4.342a.871.871 0 0 0-.867.867v1.113c0 1.787 1.476 4.102 3.04 4.102.087.006.173.006.259 0-1.155-1.834-.323-4.916 2.49-4.916ZM106.834 155.343h.052v-.287a.871.871 0 0 0-.867-.868h-4.342a.884.884 0 0 0-.623.25.873.873 0 0 0-.262.618v1.113c0 1.787 1.477 4.102 3.041 4.102.158-.002.314-.028.463-.076-1.096-1.823-.258-4.852 2.538-4.852ZM117.024 155.29h.27v-.223a.87.87 0 0 0-.868-.867h-4.342a.864.864 0 0 0-.867.867v1.114c0 1.787 1.471 4.102 3.035 4.102.107-.003.212-.014.317-.035-1.213-1.823-.393-4.958 2.455-4.958ZM127.162 155.343c.187 0 .373.015.557.047v-.334a.868.868 0 0 0-.867-.868h-4.378a.87.87 0 0 0-.867.868v1.113c0 1.787 1.471 4.102 3.041 4.102-1.16-1.823-.334-4.928 2.514-4.928ZM137.64 154.968c.156 0 .313.01.469.029a.877.877 0 0 0-.868-.809h-4.342a.871.871 0 0 0-.867.868v1.113c0 1.787 1.476 4.102 3.041 4.102.113-.002.224-.016.334-.041-1.523-1.741-.779-5.262 2.233-5.262ZM148.129 155.413h.393v-.381a.876.876 0 0 0-.868-.867h-4.342a.874.874 0 0 0-.873.867v1.113c0 1.788 1.477 4.102 3.041 4.102h.117c-1.095-1.816-.269-4.834 2.532-4.834ZM158.929 155.056a.87.87 0 0 0-.867-.868h-4.343a.881.881 0 0 0-.613.254.882.882 0 0 0-.254.614v1.113c0 1.787 1.471 4.102 3.036 4.102.312-.008.618-.092.89-.246-1.183-1.746-.469-4.735 2.151-4.969ZM169.354 155.29v-.223a.866.866 0 0 0-.867-.867h-4.342a.868.868 0 0 0-.868.867v1.114c0 1.787 1.471 4.102 3.042 4.102.251-.004.499-.062.726-.17-1.072-1.788-.304-4.676 2.309-4.823ZM179.386 155.114h.364v-.076a.875.875 0 0 0-.873-.867h-4.343a.87.87 0 0 0-.867.867v1.113c0 1.788 1.477 4.102 3.041 4.102.111-.001.221-.015.328-.041-1.359-1.764-.58-5.098 2.35-5.098ZM190.157 155.495v-.439a.876.876 0 0 0-.867-.868h-4.343a.872.872 0 0 0-.873.868v1.113c0 1.787 1.477 4.102 3.042 4.102.177-.003.353-.033.521-.088-.955-1.817-.117-4.618 2.52-4.688ZM200.072 155.19c.165.003.329.014.493.035v-.169a.87.87 0 0 0-.868-.868h-4.342a.878.878 0 0 0-.613.254.859.859 0 0 0-.254.614v1.113c0 1.787 1.471 4.102 3.035 4.102.055.003.11.003.164 0-1.312-1.811-.515-5.081 2.385-5.081ZM210.567 155.642c.135-.01.27-.01.405 0v-.586a.87.87 0 0 0-.867-.868h-4.343a.87.87 0 0 0-.867.868v1.113c0 1.758 1.459 4.102 3.024 4.102-.914-1.846-.03-4.629 2.648-4.629ZM185.979 182.457v-5.778a.708.708 0 0 0-.709-.709h-79.579a.71.71 0 0 0-.709.709v5.778a.71.71 0 0 0 .709.709h79.579a.708.708 0 0 0 .709-.709ZM196.75 177.974v-.586a.878.878 0 0 0-.254-.613.859.859 0 0 0-.614-.254h-4.342a.859.859 0 0 0-.613.254.859.859 0 0 0-.254.613v1.113c0 1.788 1.471 4.102 3.041 4.102.131-.003.26-.02.387-.052-.867-1.829.018-4.559 2.649-4.577ZM99.784 177.599c.171.001.341.015.51.041v-.246a.87.87 0 0 0-.873-.867h-4.342a.872.872 0 0 0-.868.867v1.113c0 1.788 1.477 4.102 3.042 4.102h.1c-1.249-1.816-.428-5.01 2.431-5.01ZM73.66 55.377H217.3a3.723 3.723 0 0 1 3.721 3.721v32.816H69.939V59.098a3.721 3.721 0 0 1 3.721-3.721Z" opacity=".2"/><path fill="#fff" d="M205.557 61.565H85.427a136.534 136.534 0 0 0-5.274-24.524h130.702a131.103 131.103 0 0 0-5.298 24.524Z"/><path fill="#000" d="M206.741 53.66c-.874 4.77-1.172 7.905-1.172 7.905H85.439s-.305-3.076-1.202-7.905h122.504Z" opacity=".2"/><path stroke="#263238" stroke-linecap="round" stroke-linejoin="round" d="M205.557 61.565H85.427a136.534 136.534 0 0 0-5.274-24.524h130.702a131.023 131.023 0 0 0-5.298 24.524v0Z"/><path fill="#263238" d="M203.922 82.216H86.072V130.7h117.85V82.216Z"/><g fill="#fff" opacity=".4"><path d="m142.058 126.412.621.029c.782-12.091 1.563-24.202 2.344-36.332-.996 12.134-1.984 24.235-2.965 36.303ZM140.054 126.259l.621.053c1.355-12.013 2.709-24.079 4.061-36.197a19237.68 19237.68 0 0 1-4.682 36.144ZM138.103 126.037c.205 0 .416.047.621.07 1.922-11.884 3.856-23.883 5.801-35.998a11993.759 11993.759 0 0 1-6.422 35.928ZM136.127 125.738l.627.1c2.493-11.72 5.005-23.636 7.536-35.746a5442.886 5442.886 0 0 1-8.163 35.646ZM134.159 125.369l.633.129a6130.56 6130.56 0 0 0 9.264-35.395 3390.71 3390.71 0 0 1-9.897 35.266ZM132.202 124.923l.633.159c3.592-11.24 7.284-22.895 10.987-34.985-3.92 12.09-7.829 23.692-11.62 34.826ZM130.25 124.396l.639.188c4.102-10.924 8.397-22.421 12.698-34.498-4.518 12.077-9.018 23.51-13.337 34.31ZM128.334 123.798l.639.205c4.635-10.548 9.499-21.863 14.398-33.923-5.139 12.06-10.226 23.293-15.037 33.718ZM126.388 123.113l.645.234c5.133-10.149 10.589-21.237 16.085-33.279-5.725 12.042-11.409 23.03-16.73 33.045ZM124.49 122.339l.644.27c5.603-9.693 11.65-20.51 17.75-32.553-6.346 12.019-12.61 22.778-18.394 32.283ZM122.609 121.472l.644.31c6.048-9.17 12.687-19.748 19.397-31.737-6.95 11.989-13.818 22.467-20.041 31.427ZM120.757 120.511l.644.351c6.446-8.596 13.695-18.875 21.014-30.835a352.728 352.728 0 0 1-21.658 30.484Z" opacity=".4"/><path d="M118.958 119.456c.211.135.434.258.65.387a306.49 306.49 0 0 0 22.597-29.828 278.705 278.705 0 0 1-23.247 29.441Z" opacity=".4"/><path d="m117.159 118.29.638.439a243.537 243.537 0 0 0 24.149-28.714 222.855 222.855 0 0 1-24.787 28.275Z" opacity=".4"/><path d="M141.712 89.98c-9.428 11.808-18.652 20.815-26.27 27.038l.627.487a197.25 197.25 0 0 0 25.643-27.525Z" opacity=".4"/><path d="M141.478 89.963c-10.044 11.72-19.859 20.287-27.706 25.678l.621.533c7.741-5.731 17.305-14.462 27.085-26.211Z" opacity=".4"/><path d="M141.226 89.945c-10.648 11.632-21.02 19.696-29.042 24.196.193.199.386.398.586.586 7.946-4.864 18.089-13.121 28.456-24.782Z" opacity=".4"/><path d="M141.009 89.922c-11.228 11.515-22.139 19.045-30.29 22.619l.586.639c8.069-3.967 18.734-11.708 29.704-23.258Z" opacity=".4"/><path d="M109.371 110.83c.17.235.346.469.522.697 8.174-3.017 19.338-10.219 30.888-21.623-11.785 11.351-23.188 18.318-31.41 20.926Z" opacity=".4"/><path d="M108.175 109.049c.153.246.311.492.469.738 8.204-2.063 19.854-8.69 31.902-19.924-12.283 11.169-24.137 17.551-32.371 19.186Z" opacity=".4"/><path d="M107.156 107.238c.129.258.263.51.398.768 8.204-1.114 20.252-7.155 32.758-18.137-12.711 10.876-24.952 16.666-33.156 17.369Z" opacity=".4"/><path d="M106.324 105.386c.105.258.217.522.328.78 8.157-.2 20.51-5.644 33.402-16.338-13.039 10.583-25.585 15.763-33.73 15.558ZM144.044 126.494h.616c.187-12.111.383-24.237.586-36.379-.41 12.134-.811 24.26-1.202 36.379ZM146.025 126.506h.622c-.391-12.111-.782-24.237-1.172-36.38l.55 36.38ZM148.006 126.453h.621c-.976-12.072-1.953-24.182-2.93-36.332.77 12.134 1.539 24.245 2.309 36.332ZM150.016 126.33l.621-.047a24586.871 24586.871 0 0 1-4.688-36.168c1.344 12.13 2.7 24.202 4.067 36.215ZM151.967 126.142l.622-.076a78031.305 78031.305 0 0 1-6.446-35.957c1.957 12.13 3.898 24.141 5.824 36.033ZM153.942 125.879l.627-.094a9829.436 9829.436 0 0 1-8.174-35.676 8331.98 8331.98 0 0 0 7.547 35.77ZM155.911 125.545l.627-.118a4908.45 4908.45 0 0 1-9.909-35.324 4104.154 4104.154 0 0 0 9.282 35.442ZM157.868 125.134l.639-.146c-3.797-11.134-7.712-22.778-11.644-34.89a2635.084 2635.084 0 0 0 11.005 35.036ZM159.826 124.654l.632-.182c-4.324-10.823-8.831-22.268-13.36-34.386 4.307 12.106 8.596 23.598 12.728 34.568ZM161.765 124.085l.645-.211c-4.846-10.442-9.962-21.682-15.078-33.794 4.911 12.089 9.786 23.416 14.433 34.005ZM163.693 123.435l.645-.24c-5.333-10.015-11.029-21.049-16.772-33.127 5.515 12.078 10.982 23.188 16.127 33.367ZM165.603 122.702c.217-.093.44-.175.651-.269-5.801-9.528-12.095-20.317-18.453-32.377 6.123 12.06 12.177 22.931 17.802 32.646ZM167.496 121.888l.651-.311c-6.241-8.983-13.138-19.49-20.112-31.526 6.733 12.024 13.39 22.637 19.461 31.837ZM169.354 120.968c.217-.111.433-.235.644-.352a354.277 354.277 0 0 1-21.74-30.589c7.36 12.013 14.65 22.321 21.096 30.941ZM171.194 119.954l.656-.387a279.39 279.39 0 0 1-23.346-29.552 306.135 306.135 0 0 0 22.69 29.939Z" opacity=".4"/><path d="M148.738 89.998a243.953 243.953 0 0 0 24.255 28.843l.65-.44a223.175 223.175 0 0 1-24.905-28.403Z" opacity=".4"/><path d="M148.973 89.98a196.577 196.577 0 0 0 25.784 27.636c.216-.158.422-.322.633-.486-7.642-6.224-16.936-15.272-26.417-27.15Z" opacity=".4"/><path d="M149.207 89.963c9.845 11.819 19.467 20.586 27.231 26.317.211-.176.428-.352.633-.533-7.876-5.38-17.755-13.971-27.864-25.784Z" opacity=".4"/><path d="M149.43 89.945c10.46 11.72 20.656 20.035 28.626 24.893.205-.193.398-.398.586-.586-8.028-4.494-18.477-12.587-29.212-24.307Z" opacity=".4"/><path d="M149.676 89.922c11.058 11.638 21.805 19.414 29.886 23.352l.586-.645c-8.151-3.533-19.151-11.093-30.472-22.707Z" opacity=".4"/><path d="M181.01 111.609c.181-.234.351-.468.527-.709-8.233-2.549-19.742-9.54-31.644-20.996 11.65 11.503 22.924 18.729 31.117 21.705Z" opacity=".4"/><path d="m182.281 109.846.481-.75c-8.245-1.553-20.211-7.952-32.623-19.215 12.183 11.327 23.903 17.972 32.142 19.965Z" opacity=".4"/><path d="M183.418 108.023c.141-.258.275-.516.41-.779-8.204-.586-20.574-6.382-33.402-17.387 12.588 11.099 24.788 17.152 32.992 18.166Z" opacity=".4"/><path d="M150.602 89.828c13.033 10.817 25.55 16.261 33.695 16.343.117-.263.229-.527.34-.791-8.134.334-20.815-4.852-34.035-15.552Z" opacity=".4"/></g><path fill="#000" d="M128.334 90.988c-2.221 5.696.182 22.268 16.209 22.268s21.846-11.644 21.195-18.84l21.395-3.445s6.558 18.119-7.366 30.794c-13.923 12.675-62.186 11.855-72.388 2.221-10.203-9.634-4.542-28.667-4.542-28.667l25.497-4.33Z" opacity=".2"/><path fill="#999" stroke="#263238" stroke-linecap="round" stroke-linejoin="round" d="M222.235 66.411v-3.996a.69.69 0 0 1 .486-.662l2.93-.914v-3.997a1.803 1.803 0 0 1 1.805-1.805h3.516a.669.669 0 0 1 .68.633v1.29a.668.668 0 0 1-.662.667h-4.471v3.909a.707.707 0 0 1-.334.586l-2.497 1.512v2.783l-1.453-.006Z"/><path fill="#263238" d="M226.091 66.411h-3.856v11.533h3.856V66.41Z"/><path fill="#757575" d="M230.914 65.433h-4.823v13.49h4.823v-13.49Z"/><path fill="#000" d="M230.902 73.648h-4.811v5.274h4.811v-5.274Z" opacity=".2"/><path stroke="#263238" stroke-linecap="round" stroke-linejoin="round" d="M230.914 65.433h-4.823v13.49h4.823v-13.49Z"/><path fill="#263238" d="M64.87 77.938h3.856V66.406H64.87v11.532Z"/><path fill="#757575" d="M60.047 78.917h4.823v-13.49h-4.823v13.49Z"/><path fill="#000" d="M64.876 73.648h-4.823v5.145h4.823v-5.145Z" opacity=".2"/><path stroke="#263238" stroke-linecap="round" stroke-linejoin="round" d="M60.047 78.917h4.823v-13.49h-4.823v13.49Z"/><path fill="#fff" stroke="#263238" stroke-linecap="round" stroke-linejoin="round" d="M68.146 72.863a4.688 4.688 0 0 0-1.383-5.274l-2.836-2.344a1.716 1.716 0 0 0-2.497.305L50.185 81.06c-.214.29-.329.642-.328 1.002v16.66a1.688 1.688 0 0 0 1.711 1.688 1.688 1.688 0 0 0 1.688-1.688v-13.53c0-.334.105-.66.299-.932l8.409-11.72a.913.913 0 0 1 1.336-.164l1.547 1.312a2.08 2.08 0 0 0 3.3-.826Z"/><path fill="#999" stroke="#263238" stroke-linecap="round" stroke-linejoin="round" d="M65.825 71.346a.803.803 0 1 0 0-1.606.803.803 0 0 0 0 1.606Z"/><path fill="#263238" d="M218.66 60.839H72.307v22.666H218.66V60.839Z"/><path fill="#fff" d="M216.545 62.544H74.363a.809.809 0 0 0-.808.808v3.669c0 .446.362.808.808.808h142.182a.808.808 0 0 0 .808-.808v-3.669a.809.809 0 0 0-.808-.808Z" opacity=".2"/><path fill="#fff" d="M205.557 88.064H85.427a62.956 62.956 0 0 1-5.274-24.524h130.702c0 11.357-5.298 24.524-5.298 24.524Z"/><g stroke="#263238" stroke-linecap="round" stroke-linejoin="round" opacity=".7"><path d="M95.143 86.224s2.631-.14 4.102-1.026c1.471-.884 1.365.798 2.209.909.844.111 2.837-.586 3.891-.586 1.055 0 .252.644 1.442.586 1.189-.059.551.058 1.172-.059l5.092-.85s2.584-.498 3.106-.246c.522.252 1.207 1.495 1.969 1.172.762-.322.357-.586 1.506-.586.71.004 1.416.106 2.098.305 0 0 .105-.299.633-.305h.943s1.998.528 2.315.528c.316 0 2.678-.522 2.76-.528.082-.005 2.344-.586 2.344-.586.48.502 1.088.863 1.758 1.044.856.11 1.758-.118 2.403.17.644.287 2.766-.118 2.766-.118.506.004 1.011.043 1.511.117.657.15 1.341.13 1.987-.058a7.57 7.57 0 0 1 3.633-.059c1.905.346 3.657-.521 4.465-.527.809-.006 4.044.357 5.157.357 1.114 0 4.061.399 6.112.17 2.051-.228 3.393.287 4.77.287 1.377 0 2.848-.058 3.165-.058.316 0 1.84-.996 4.02-.756 2.18.24.24-.299 1.582 0s2.402.586 2.971.644a6.76 6.76 0 0 0 1.365-.058l2.344-.17h11.685M92.71 81.7s7.238 0 8.545-.117c1.307-.117 2.004-.785 2.701-.785.698 0 4.219.668 4.219.668a1.174 1.174 0 0 1 1.172-.668c.956 0 .469.088 1.348.44.879.35.422 0 .885.345.69.31 1.42.523 2.168.633 0 0 3.264.152 3.387-.633.123-.785 1.758.633 1.758.633s4.431-.633 6.142-.633c1.711 0 6-.346 6-.346s3.516.463 3.68.463c.164 0 .745.92 1.372.516.627-.405 1.23-.867 1.974-.75a9.12 9.12 0 0 1 1.993.75l1.635-.867 1.875.117s1.91 1.271 3.276.75a29.94 29.94 0 0 0 3.041-1.418l1.682 1.418h1.102l3.264-.633a1.97 1.97 0 0 0 2.139.633c1.382-.399 14.597 0 17.96 0 3.364 0 4.102-.867 4.102-.867l2.591.867h12.892" opacity=".7"/></g><path fill="#000" d="M206.782 84.677c-.709 2.11-1.225 3.387-1.225 3.387H85.427s-.586-1.23-1.388-3.387h122.743ZM209.284 75.805a94.244 94.244 0 0 1-1.289 4.993H82.732a69.201 69.201 0 0 1-1.266-4.993h127.818Z" opacity=".2"/><path stroke="#263238" stroke-linecap="round" stroke-linejoin="round" d="M205.557 88.064H85.427a62.956 62.956 0 0 1-5.274-24.524h130.702c0 11.357-5.298 24.524-5.298 24.524Z"/><path fill="#757575" d="M72.277 59.672h-3.58v25.01h3.58v-25.01Z"/><path fill="#000" d="M72.207 77.264H68.72v7.419h3.487v-7.419Z" opacity=".2"/><path stroke="#263238" stroke-linecap="round" stroke-linejoin="round" d="M72.277 59.672h-3.58v25.01h3.58v-25.01Z"/><path fill="#757575" d="M222.264 59.672h-3.58v25.01h3.58v-25.01Z"/><path fill="#000" d="M222.264 77.264h-3.61v7.419h3.61v-7.419Z" opacity=".2"/><path stroke="#263238" stroke-linecap="round" stroke-linejoin="round" d="M222.264 59.672h-3.58v25.01h3.58v-25.01Z"/><path fill="#999" stroke="#263238" stroke-linecap="round" stroke-linejoin="round" d="M218.713 58.623v18.243H72.248V58.623h-1.406V78.09h149.277V58.623h-1.406Z"/><path fill="#fff" stroke="#263238" stroke-linecap="round" stroke-linejoin="round" d="M227.368 89.353v40.909a2.602 2.602 0 0 1-2.602 2.602H66.177a2.601 2.601 0 0 1-2.602-2.602V89.353a2.602 2.602 0 0 1 2.602-2.602h73.074v2.602s-12.476 10.824-33.988 14.814c3.083 13.953 19.924 24.612 40.247 24.612 20.322 0 37.164-10.671 40.252-24.612-21.541-3.99-34.017-14.814-34.017-14.814v-2.625h73.039a2.608 2.608 0 0 1 1.837.776 2.594 2.594 0 0 1 .747 1.85Z"/><path fill="#fff" d="M227.368 89.353v40.909a2.607 2.607 0 0 1-1.61 2.405 2.608 2.608 0 0 1-.998.197H66.177a2.606 2.606 0 0 1-2.608-2.602V89.353a2.614 2.614 0 0 1 2.608-2.607h73.074v2.607s-12.482 10.818-33.988 14.814c3.083 13.953 19.924 24.612 40.253 24.612 20.328 0 37.158-10.671 40.246-24.612-21.541-3.996-34.017-14.814-34.017-14.814v-2.625h73.039a2.61 2.61 0 0 1 2.584 2.625Z"/><path fill="#fff" d="M223.852 89.98v37.768a1.916 1.916 0 0 1-.562 1.351 1.908 1.908 0 0 1-1.354.553h-154.2a1.884 1.884 0 0 1-1.349-.556 1.9 1.9 0 0 1-.556-1.348V89.98a1.91 1.91 0 0 1 1.905-1.916h71.492v1.29s-12.482 10.817-33.988 14.813c3.082 13.953 19.924 24.612 40.252 24.612 20.328 0 37.158-10.671 40.246-24.612-21.541-3.996-34.017-14.814-34.017-14.814v-1.289h70.232a1.918 1.918 0 0 1 1.899 1.916Z" opacity=".2"/><path stroke="#263238" stroke-linecap="round" stroke-linejoin="round" d="M227.368 89.353v40.909a2.607 2.607 0 0 1-1.61 2.405 2.608 2.608 0 0 1-.998.197H66.177a2.606 2.606 0 0 1-2.608-2.602V89.353a2.614 2.614 0 0 1 2.608-2.607h73.074v2.607s-12.482 10.818-33.988 14.814c3.083 13.953 19.924 24.612 40.253 24.612 20.328 0 37.158-10.671 40.246-24.612-21.541-3.996-34.017-14.814-34.017-14.814v-2.625h73.039a2.61 2.61 0 0 1 2.584 2.625v0Z"/><path fill="#000" fill-opacity=".7" d="m174.98 144.988 7.788 21.723s3.369-23.909 5.379-23.909c2.01 0 6.341 13.074 6.341 13.074s2.672-6.821 5.203-7.067c2.532-.246 4.823 16.748 4.823 16.748l.393 37.721-3.194 57.047s-20.375-22.444-26.317-28.228c-5.942-5.784-11.621-18.512-13.262-21.096-1.64-2.584-2.056-16.115-2.056-16.115a14.503 14.503 0 0 0 3.07-9.329s4.782-8.005 4.489-13.912c-.293-5.907-1.031-28.86 7.343-26.657Z" opacity=".2"/><path fill="#fff" d="m236.281 250.222-30.847 16.226c0-.164-4.055-6.733-8.954-14.163a365.421 365.421 0 0 0-6.874-10.097c-3.715-5.233-8.438-9.751-8.842-10.736-1.172-2.93-10.209-13.899-12.23-18.166-2.022-4.266-2.485-17.539-3.376-20.662-.89-3.123 1.665-6.106 3.716-7.559 2.051-1.454 4.201-5.274 4.201-5.274s-2.268-8.837-2.291-13.332c-.023-4.494-1.553-20.182.275-21.647 1.829-1.465 3.464-.849 3.921.159 1.5 3.322 2.848 11.679 4.002 15.529 1.155 3.85 3.323 15.019 4.389 15.822 1.067.802 2.965-2.21 2.965-2.21s.182-9.376.586-13.261l-.586-12.306s-1.095-7.395 1.454-8.098c3.516-.967 4.799 1.242 5.198 2.174.398.931 2.039 6.299 2.039 6.299l.094.369v.176l.087.334c.065.246.141.539.223.873.78 3.053 2.28 9.165 2.215 10.671-.088 2.034-.797 13.297.205 15.635l1.559-15.558s-2.514-11.99-1.781-13.719c.732-1.728 4.184.182 4.594.862.41.679 3.762 4.793 4.36 6.364l.586 1.57s.826-3.715 2.766-2.748c1.939.967 2.18 5.69 2.314 7.753.135 2.062 1.542 15.329 1.758 15.353.217.023 2.456 6.915 2.151 11.468-.639 9.745 1.049 16.994 1.108 20.733.058 3.738-2.761 12.399-2.761 12.399.1.17 1.94 3.299 2.444 6.048.369 2.016 6.938 9.3 12.306 15.095 3.733 3.997 6.862 7.267 7.026 7.624Z"/><path fill="#fff" d="M196.486 252.296a365.359 365.359 0 0 0-6.874-10.096c-3.715-5.233-8.438-9.751-8.843-10.736-1.172-2.93-10.208-13.9-12.229-18.166-2.022-4.266-2.485-17.539-3.376-20.662-.89-3.124 1.665-6.106 3.716-7.56 2.051-1.453 4.201-5.274 4.201-5.274s-2.268-8.837-2.291-13.331c-.024-4.495-1.553-20.182.275-21.647 1.829-1.465 3.464-.85 3.921.158 1.5 3.323 2.848 11.679 4.002 15.529 1.154 3.85 3.323 15.019 4.389 15.822 1.067.803 2.965-2.209 2.965-2.209s.182-9.376.586-13.261l-.586-12.306s-1.096-7.395 1.454-8.099c3.516-.967 4.799 1.243 5.197 2.174.399.932 2.04 6.3 2.04 6.3l.093.369v.176a50.698 50.698 0 0 1 .311 1.207c-.908-1.436-2.156-2.66-3.827-2.983-4.688-.914-3.674 4.302-3.228 7.431a21.687 21.687 0 0 1-.147 6.241l1.172-.674c-.844 1.506-2.051 14.023-2.051 16.806 0 2.784-2.203 3.71-4.178 2.895-1.975-.814-2.678-13.589-4.178-15.881-1.5-2.291-5.673 2.087-5.86 6.089-.188 4.002 3.545 15.939 2.66 18.752-.885 2.813-.873 13.478-.873 13.478l-1.078-2.748c.07.375 0 1.635-2.256 5.344a11.034 11.034 0 0 0-1.225 9.118c1.377 3.042 8.362 11.058 9.534 11.884 0 0 .85-3.481 3.516-2.555a15.383 15.383 0 0 0-1.957 4.688c-.551 2.555 5.01 4.19 6.751 6.622 1.066 1.483 1.781 6.001 8.274 17.105ZM229.29 242.604c-5.485-5.526-15.136-10.788-14.55-12.165.785-1.852-.211-5.796-1.899-8.995-1.688-3.2.586-8.392.586-8.392l1.043 3.018a25.68 25.68 0 0 0 .287-10.618c-1.066-5.983-1.898-3.88-1.898-3.88s.216-5.391 1.172-8.333c.955-2.941 1.758-10.085.439-14.31-1.318-4.225-4.102-3.428-4.846-1.975-.744 1.454.053 7.12.668 8.978.615 1.858-2.004 4.981-2.057 2.66-.053-2.32-1.043-8.79-1.043-8.79l1.986-12.991-1.986-10.32s.826-3.715 2.766-2.748c1.939.967 2.18 5.69 2.315 7.753.134 2.062 1.541 15.33 1.758 15.353.216.023 2.455 6.915 2.15 11.468-.639 9.745 1.049 16.994 1.108 20.733.058 3.738-2.76 12.399-2.76 12.399.099.17 1.939 3.3 2.443 6.048.369 2.016 6.938 9.3 12.306 15.095l.012.012ZM206.582 154.927c.112.293.205.533.276.726-1.864-4.33-5.04-2.988-5.602-1.758-.563 1.231 1.33 8.867 1.758 10.05.427 1.184-1.7 10.636-2.01 13.765-.311 3.13-1.137 3.768-1.137 3.768-2.104.159-2.344-5.649-2.344-6.446.041.667.171 1.325.387 1.958l1.558-15.559s-2.572-12.001-1.84-13.73c.733-1.728 4.184.182 4.595.862.41.679 3.762 4.793 4.359 6.364Z" opacity=".4"/><path stroke="#263238" stroke-linecap="round" stroke-linejoin="round" d="M236.281 250.222c-.398-.902-18.699-19.338-19.338-22.725-.515-2.825-2.449-6.053-2.449-6.053s2.818-8.644 2.76-12.4c-.059-3.756-1.758-10.988-1.108-20.733.305-4.553-1.928-11.444-2.15-11.468-.223-.023-1.629-13.29-1.758-15.353-.129-2.063-.37-6.786-2.315-7.753-1.946-.967-2.766 2.748-2.766 2.748l-.586-1.57c-.586-1.571-3.95-5.684-4.36-6.364-.41-.68-3.856-2.596-4.594-.861-.738 1.734 1.834 13.706 1.834 13.706l-1.547 15.576c-1.002-2.344-.293-13.601-.205-15.634.088-2.034-2.666-12.424-2.666-12.424s-1.653-5.344-2.04-6.305c-.386-.961-1.681-3.141-5.197-2.174-2.55.703-1.454 8.098-1.454 8.098l.586 12.306c-.392 3.903-.586 13.262-.586 13.262s-1.898 3.006-2.965 2.209c-1.066-.797-3.235-11.96-4.389-15.822-1.154-3.862-2.502-12.207-4.002-15.529-.457-1.008-2.092-1.623-3.921-.158-1.828 1.465-.304 17.146-.275 21.646.029 4.501 2.291 13.332 2.291 13.332s-2.15 3.797-4.201 5.274c-2.051 1.477-4.606 4.43-3.716 7.559.891 3.13 1.354 16.408 3.376 20.663 2.021 4.254 11.034 15.236 12.229 18.166.405.984 5.128 5.502 8.843 10.735 7.296 10.273 15.822 24.026 15.822 24.261"/><path stroke="#263238" stroke-linecap="round" stroke-linejoin="round" d="M173.075 179.808s1.454 7.202 1.401 8.409c0 0-1.272 5.561-1.284 9.165a36.821 36.821 0 0 0-2.39 4.237c-.493 1.301-1.372 4.501-1.008 6.282"/><path stroke="#263238" stroke-linecap="round" stroke-linejoin="round" d="M170.42 190.45s3.563.029 3.335 1.529M173.192 197.382s-2.285-.99-3.088.34M186.348 174.124s-.164 5.52-1.618 5.081M197.904 176.972s-.422 3.018.715 3.95M207.174 156.497s1.583 7.618 1.946 9.423c.363 1.805-1.799 11.017-1.758 13.414.041 2.396 1.066 5.824.926 7.436M213.492 214.353s-.51 4.975 1.019 7.102M182.768 224.198s-3.411 3.106-2.163 6.926M205.182 185.475c.053 2.191-1.23 4.746-1.365 7.776M194.318 183.518c.726 1.793-.856 5.695-1.096 7.16a8.963 8.963 0 0 0 .369 3.399M214.739 189.694c-.293 1.905-1.64 3.264-1.898 9.124M181.467 182.961c.984 1.072.322 6.194.586 7.032M199.826 153.456s3.352-2.455 6.235.439M188.282 147.813s.586-.979 3.416-.739 3.334 1.834 3.334 1.834"/><path fill="#fff" d="M180.013 164.543s-.949-1.401-3.451-.938c-2.502.463-3.616 4.003-3.616 4.003"/><path stroke="#263238" stroke-linecap="round" stroke-linejoin="round" d="M180.013 164.543s-.949-1.401-3.451-.938c-2.502.463-3.616 4.003-3.616 4.003M214.013 176.855s-2.086-3.024-4.594-1.729"/><path fill="#000" fill-opacity=".7" d="M125.141 154.704c3.516 2.725.55 19.449.55 19.449l.311 5.444 6.03-2.625 2.748 11.632s-.07 4.26 2.163 5.86c0 0 .55 9.558 0 16.543-.551 6.985-11.72 15.195-15.57 22.526-3.85 7.331-28.96 28.878-28.96 28.878l-21.26-10.115 15.37-62.08 13.771-17.703 8.163-20.364s1.401 13.302.586 22.268l16.098-19.713Z" opacity=".2"/><path fill="#fff" d="M131.059 191.856c-.533 2.567.75 16.637.527 18.536-.222 1.898-11.415 14.65-11.978 15.616-.562.967-8.045 5.275-9.786 7.331-8.133 9.488-12.575 18.225-16.144 26.986a233.066 233.066 0 0 0-1.987 5.08l-32.276-18.752c2.713-3.363 5.274-6.352 7.618-9.071 4.688-5.514 8.42-9.927 10.249-14.093a23.322 23.322 0 0 1 1.922-3.048c.726-1.031 1.377-1.881 1.377-1.881s-2.344-6.604-1.8-8.678c.546-2.075-.673-19.127-.673-19.127s-1.588-11.609-3.153-14.539a4.827 4.827 0 0 1-.504-2.473c.077-2.678 1.63-6.053 2.391-9.962 1.02-5.274.528-7.882 3.727-6.059 3.2 1.822 1.705 12.892 1.705 12.892l4.835 10.712c1.272-2.59 0-10.15-.064-11.937 0-.293 0-.779-.047-1.412-.1-3.082-.305-9.499-.041-12.031 0-.14 0-.269.046-.386.393-2.614 1.794-10.929 2.684-11.855 1.325-1.371 3.428-2.526 5.41.586 1.107 1.758.632 15.699.632 15.699s4.594-5.544 5.989-6.897c1.395-1.354 5.626-3.827 6.756-.962 1.131 2.866-3.041 11.72-3.041 11.72.873 2.051.979 7.73.979 7.73s1.975 7.096 3.188 7.032h.052c.352-.076.739-1.366 1.143-3.176.996-4.436 2.08-12.025 2.93-12.687l.586-.469a.437.437 0 0 1 .094-.088l.217-.193c2.074-1.846 6.446-5.948 6.446-5.948s.31-1.963 4.137-1.36c3.826.604-1.7 11.896-1.7 11.896-.767 3.592-1.945 12.833-1.945 12.833-.358 3.845-.147 14.176-.147 14.176s1.811-6.013 1.694-8.204c-.117-2.192 3.598-7.56 4.688-8.943 1.09-1.382 5.954-.896 4.6 1.758-1.354 2.655-.803 11.07-1.336 13.648Z"/><path fill="#fff" d="M77.264 223.512a23.245 23.245 0 0 1 1.922-3.047s-1.904 5.274-2.092 8.081c-.123 1.852-4.998 5.057-10.079 9.059 4.717-5.514 8.421-9.926 10.25-14.093ZM79.186 220.465c.727-1.031 1.377-1.881 1.377-1.881s-2.344-6.604-1.799-8.679c.545-2.074-.674-19.127-.674-19.127s-1.588-11.608-3.153-14.538l3.645 6.369s-.357 5.034.68 7.794 2.344 11.181 2.344 11.181-1.535 7.079-1.014 9.628c.522 2.549 2.872 1.623 2.872 1.623s1.154 4.665-4.278 7.63ZM87.689 172.512c2.514 14.721-1.817 10.648-3.381 7.472-1.565-3.176-5.24-9.188-8.005-7.905a4.319 4.319 0 0 0-1.87 1.688c.077-2.678 1.63-6.054 2.391-9.962 1.02-5.274.528-7.882 3.727-6.06 3.2 1.823 1.706 12.892 1.706 12.892l4.834 10.712c1.272-2.59 0-10.149-.064-11.936 0-.293 0-.78-.047-1.413.193 1.354.428 2.86.709 4.512ZM93.842 157.968s-2.713-3.551-5.069-3.369a2.07 2.07 0 0 0-1.834 1.353c0-.14 0-.269.047-.387.392-2.613 1.793-10.928 2.684-11.854 1.324-1.372 3.428-2.526 5.409.586 1.107 1.758.632 15.699.632 15.699s4.595-5.544 5.989-6.898c1.395-1.353 5.626-3.826 6.757-.961 1.131 2.866-3.041 11.72-3.041 11.72.873 2.051.978 7.73.978 7.73s1.975 7.096 3.188 7.032c-2.672 5.028-4.454-6.089-4.454-6.089.399-2.297-1.019-7.278-.879-8.591.141-1.312-2.461-5.953-6.844-4.688-4.383 1.266-1.219 18.588-1.219 18.588a9.682 9.682 0 0 0-1.465 4.583c-1.354-1.67 0-6.446 0-6.446-1.201-4.571-.879-18.008-.879-18.008ZM114.27 162.263c-1.869 1.964-1.612 6.927-3.516 13.156.996-4.436 2.08-12.025 2.93-12.687l.586-.469ZM131.059 191.856c-.534 2.567.75 16.637.527 18.535-.223 1.899-11.415 14.65-11.978 15.617-.562.967-8.046 5.274-9.786 7.331-8.134 9.488-12.576 18.225-16.144 26.986a115.435 115.435 0 0 1 4.858-13.338c3.85-8.655 5.42-10.196 7.729-12.669 2.309-2.473 2.057-7.729 2.057-7.729a22.14 22.14 0 0 1 5.204-.616c2.93 0 11.602-12.364 14.585-14.533 2.983-2.168 3.516-2.168 0-6.95-3.516-4.781-2.52.768-3.575.586-1.054-.181-1.629 2.128-1.629 2.128-.369-4.876-3.516-10.548-4.178-11.966-.662-1.419 1.606-9.734 1.137-12.049-.469-2.314 2.016-16.408 2.016-16.408s-.311-5.408-5.21-5.426a3.208 3.208 0 0 0-2.098.633c2.075-1.846 6.446-5.948 6.446-5.948s.311-1.963 4.138-1.36c3.826.604-1.7 11.896-1.7 11.896-.767 3.592-1.945 12.834-1.945 12.834-.358 3.844-.147 14.175-.147 14.175s1.811-6.012 1.694-8.204c-.117-2.192 3.598-7.559 4.688-8.942 1.09-1.383 5.954-.897 4.6 1.758-1.354 2.654-.756 11.081-1.289 13.659Z" opacity=".4"/><path stroke="#263238" stroke-linecap="round" stroke-linejoin="round" d="M91.686 265.458c3.978-10.507 8.426-20.762 18.136-32.089 1.758-2.028 9.218-6.335 9.786-7.331.569-.996 11.761-13.724 11.978-15.617.217-1.893-1.06-15.969-.527-18.535.533-2.567-.088-11.029 1.26-13.666 1.348-2.637-3.516-3.117-4.6-1.758-1.084 1.36-4.788 6.774-4.688 8.943.099 2.168-1.694 8.204-1.694 8.204s-.211-10.332.147-14.176c0 0 1.172-9.241 1.945-12.833 0 0 5.52-11.298 1.7-11.896-3.821-.598-4.138 1.359-4.138 1.359s-6.1 5.732-7.307 6.669c-1.207.938-2.854 15.588-4.067 15.863-1.213.276-3.24-7.032-3.24-7.032s-.106-5.678-.979-7.729c0 0 4.166-8.831 3.041-11.72-1.125-2.889-5.356-.387-6.756.961-1.401 1.348-5.99 6.897-5.99 6.897s.475-13.953-.632-15.699c-1.98-3.123-4.102-1.969-5.409-.586-.89.926-2.291 9.241-2.684 11.855-.392 2.614 0 12.036.041 13.83.041 1.793 1.336 9.346.065 11.936l-4.835-10.712s1.5-11.081-1.705-12.892c-3.205-1.81-2.707.803-3.727 6.06-1.02 5.256-3.446 9.528-1.887 12.464 1.559 2.936 3.153 14.538 3.153 14.538s1.207 17.053.674 19.127c-.534 2.075 1.816 8.685 1.816 8.685s-2.707 3.569-3.299 4.928c-2.73 6.206-9.64 12.992-17.855 23.2"/><path stroke="#263238" stroke-linecap="round" stroke-linejoin="round" d="M95.711 160.007a5.758 5.758 0 0 0-.984 3.417c0 2.227 1.459 14.415 1.459 14.415s-1.06 1.254-1.113 2.344M121.349 193.579c.16 2.059.69 4.072 1.565 5.942 1.371 2.708.926 4.202.457 5.802a20.666 20.666 0 0 0-.498 4.272M87.607 178.923s1.02 3.235-.873 4.77M109.635 178.595s.199 1.272-1.6 1.389M121.718 163.945s-4.512-4.922-8.016-1.213"/><path stroke="#263238" stroke-linecap="round" stroke-linejoin="round" d="M103.435 161.179s-2.08-2.631-3.885-2.473c-1.805.159-4.243 1.26-4.518 2.708M123.757 203.74a10.394 10.394 0 0 1 1.565 3.44M112.037 183.734c-1.4 2.608-.732 7.032-1.248 8.245M97.2 179.404c.328 1.5-.709 3.944-.867 5.743-.159 1.799 1.312 4.576 1.043 7.102M87.69 185.545s-1.225 2.825-1.173 4.688c.053 1.864.715 5.948.715 5.948M78.682 185.41s-.445 2.93.586 4.993 2.034 6.446 2.034 6.446M80.564 218.578a2.8 2.8 0 0 0 2.033-2.397M110.022 227.509s1.119 4.143-1.026 6.809M74.463 173.274s3.153-3.076 5.538-.48M86.986 155.565s2.344-2.455 5.086.17"/></svg>