<svg aria-hidden="true" style="position: absolute; width: 0; height: 0; overflow: hidden;" version="1.1" xmlns="http://www.w3.org/2000/svg" xmlns:xlink="http://www.w3.org/1999/xlink">
<defs>
<symbol id="icon-burger-menu" viewBox="0 0 57 32">
<path d="M1.333 0h53.804c0.736 0 1.333 0.597 1.333 1.333v2.98c0 0.736-0.597 1.333-1.333 1.333h-53.804c-0.736 0-1.333-0.597-1.333-1.333v-2.98c0-0.736 0.597-1.333 1.333-1.333z"></path>
<path d="M1.333 13.176h53.804c0.736 0 1.333 0.597 1.333 1.333v2.98c0 0.736-0.597 1.333-1.333 1.333h-53.804c-0.736 0-1.333-0.597-1.333-1.333v-2.98c0-0.736 0.597-1.333 1.333-1.333z"></path>
<path d="M1.333 26.353h37.276c0.736 0 1.333 0.597 1.333 1.333v2.98c0 0.736-0.597 1.333-1.333 1.333h-37.276c-0.736 0-1.333-0.597-1.333-1.333v-2.98c0-0.736 0.597-1.333 1.333-1.333z"></path>
</symbol>
<symbol id="icon-light" viewBox="0 0 26 32">
<path d="M19.585 17.918c1.079-1.423 1.65-3.122 1.65-4.913 0-2.196-0.861-4.254-2.425-5.796s-3.636-2.374-5.832-2.342c-2.128 0.030-4.133 0.884-5.646 2.405s-2.356 3.53-2.375 5.658c-0.017 1.825 0.557 3.554 1.66 5.002 1.789 2.35 2.775 5.228 2.775 8.105v3.148c0 1.396 1.136 2.532 2.532 2.532h2.355c1.396 0 2.532-1.136 2.532-2.532v-3.147c0-2.908 0.952-5.716 2.774-8.118v0zM7.447 17.299c-0.961-1.261-1.461-2.769-1.446-4.36 0.035-3.822 3.172-6.975 6.993-7.029 1.917-0.026 3.721 0.698 5.084 2.042s2.114 3.139 2.114 5.053c0 1.561-0.497 3.042-1.438 4.283-1.92 2.531-2.953 5.484-2.996 8.552h-5.325c-0.044-3.038-1.1-6.064-2.987-8.541v0zM10.435 28.83v-0.422l5.332 0.611v0.165c0 0.087-0.009 0.172-0.023 0.255l-5.309-0.608zM10.435 27.357v-0.474h5.332v1.085l-5.332-0.611zM11.923 30.672c-0.561 0-1.049-0.312-1.303-0.771l4.492 0.515c-0.238 0.161-0.525 0.256-0.834 0.256l-2.355 0z"></path>
<path d="M7.936 13.79c-0.041-0.273-0.060-0.554-0.058-0.834 0.003-0.288-0.229-0.524-0.517-0.527-0.286-0.003-0.524 0.229-0.526 0.517-0.003 0.335 0.020 0.67 0.069 0.997 0.039 0.259 0.261 0.445 0.515 0.445 0.026 0 0.052-0.002 0.078-0.006 0.285-0.043 0.482-0.308 0.439-0.593z"></path>
<path d="M11.007 21.715c0.054 0 0.109-0.009 0.163-0.026 0.274-0.090 0.423-0.385 0.333-0.659-0.578-1.759-1.44-3.397-2.562-4.869-0.185-0.243-0.35-0.503-0.488-0.771-0.132-0.256-0.447-0.356-0.703-0.224s-0.356 0.447-0.224 0.703c0.166 0.322 0.363 0.632 0.585 0.924 1.051 1.38 1.859 2.915 2.4 4.563 0.072 0.22 0.276 0.359 0.496 0.359z"></path>
<path d="M18.578 14.791c-0.265-0.114-0.572 0.008-0.686 0.273-0.165 0.384-0.379 0.75-0.636 1.088-0.174 0.23-0.129 0.557 0.1 0.731 0.094 0.072 0.205 0.106 0.315 0.106 0.158 0 0.314-0.071 0.416-0.207 0.307-0.405 0.564-0.845 0.763-1.306 0.114-0.265-0.008-0.572-0.273-0.686v0z"></path>
<path d="M13.096 7.787c2.877 0 5.217 2.341 5.217 5.217 0 0.164-0.008 0.328-0.022 0.49-0.026 0.287 0.185 0.541 0.472 0.567 0.016 0.002 0.032 0.002 0.048 0.002 0.267 0 0.494-0.203 0.519-0.474 0.018-0.193 0.027-0.39 0.027-0.585 0-3.452-2.809-6.261-6.261-6.261-0.288 0-0.522 0.234-0.522 0.522s0.234 0.522 0.522 0.522v0z"></path>
<path d="M13.096 3.965c0.288 0 0.522-0.234 0.522-0.522v-2.922c0-0.288-0.234-0.522-0.522-0.522s-0.522 0.234-0.522 0.522v2.922c0 0.288 0.234 0.522 0.522 0.522z"></path>
<path d="M7.817 4.996c0.097 0.167 0.272 0.261 0.452 0.261 0.088 0 0.178-0.023 0.26-0.070 0.25-0.144 0.335-0.463 0.191-0.713l-1.46-2.53c-0.144-0.25-0.463-0.335-0.713-0.191s-0.335 0.463-0.191 0.713l1.46 2.53z"></path>
<path d="M24.246 18.931l-2.53-1.46c-0.25-0.144-0.569-0.059-0.713 0.191s-0.059 0.569 0.191 0.713l2.53 1.46c0.082 0.047 0.172 0.070 0.26 0.070 0.18 0 0.356-0.094 0.452-0.261 0.144-0.25 0.059-0.569-0.191-0.713v0z"></path>
<path d="M1.945 7.261l2.53 1.46c0.082 0.047 0.172 0.070 0.26 0.070 0.18 0 0.356-0.094 0.452-0.261 0.144-0.25 0.059-0.569-0.191-0.713l-2.53-1.46c-0.25-0.144-0.569-0.059-0.713 0.191s-0.059 0.569 0.191 0.713v0z"></path>
<path d="M25.67 12.574h-2.922c-0.288 0-0.522 0.234-0.522 0.522s0.234 0.522 0.522 0.522h2.922c0.288 0 0.522-0.234 0.522-0.522s-0.234-0.522-0.522-0.522z"></path>
<path d="M3.965 13.096c0-0.288-0.234-0.522-0.522-0.522h-2.922c-0.288 0-0.522 0.234-0.522 0.522s0.234 0.522 0.522 0.522h2.922c0.288 0 0.522-0.234 0.522-0.522z"></path>
<path d="M21.456 8.791c0.088 0 0.178-0.023 0.26-0.070l2.53-1.46c0.25-0.144 0.335-0.463 0.191-0.713s-0.463-0.335-0.713-0.191l-2.53 1.46c-0.25 0.144-0.335 0.463-0.191 0.713 0.097 0.167 0.272 0.261 0.452 0.261z"></path>
<path d="M4.475 17.471l-2.53 1.46c-0.25 0.144-0.335 0.463-0.191 0.713 0.097 0.167 0.272 0.261 0.452 0.261 0.088 0 0.178-0.023 0.26-0.070l2.53-1.46c0.25-0.144 0.335-0.463 0.191-0.713s-0.463-0.335-0.713-0.191v0z"></path>
<path d="M17.662 5.187c0.082 0.047 0.172 0.070 0.26 0.070 0.18 0 0.356-0.094 0.452-0.261l1.46-2.53c0.144-0.25 0.058-0.569-0.191-0.713s-0.569-0.059-0.713 0.191l-1.46 2.53c-0.144 0.25-0.058 0.569 0.191 0.713v0z"></path>
</symbol>
<symbol id="icon-close-btn" viewBox="0 0 32 32">
<path d="M31.439 3.166l-3.166-3.166-12.553 12.553-12.553-12.553-3.166 3.166 12.553 12.553-12.553 12.553 3.166 3.166 12.553-12.553 12.553 12.553 3.166-3.166-12.553-12.553 12.553-12.553z"></path>
</symbol>
</defs>
</svg>
